# The Great Editor v0.0.1
mtllib floor_2.mtl
o floor_2
v 80.7675206919105 -71.8956791060476 0
v 80.7675206919105 -71.8956791060476 -0.1
v 66.77529038967003 -71.89486383866316 0
v 66.77529038967003 -71.89486383866316 -0.1
v 66.4966727610388 -121.84874228525135 0
v 66.4966727610388 -121.84874228525135 -0.1
v 80.49522138550866 -121.80808082445255 0
v 80.49522138550866 -121.80808082445255 -0.1
v 80.5054122278141 -118.672358647063 0
v 80.5054122278141 -118.672358647063 -0.1
v 69.66286555692166 -118.69274033167393 0
v 69.66286555692166 -118.69274033167393 -0.1
v 69.7137178600259 -107.85019366078147 0
v 69.7137178600259 -107.85019366078147 -0.1
v 75.73059497401464 -107.85019366078147 0
v 75.73059497401464 -107.85019366078147 -0.1
v 75.77900147496557 -118.65707238360481 0
v 75.77900147496557 -118.65707238360481 -0.1
v 78.70591329351628 -118.66981093648663 0
v 78.70591329351628 -118.66981093648663 -0.1
v 78.82616523272068 -107.82920052563222 0
v 78.82616523272068 -107.82920052563222 -0.1
v 81.78150950130362 -107.80464059567606 0
v 81.78150950130362 -107.80464059567606 -0.1
v 81.78150950130362 -104.95619826287738 0
v 81.78150950130362 -104.95619826287738 -0.1
v 69.38740708940512 -105.02763606743865 0
v 69.38740708940512 -105.02763606743865 -0.1
v 69.35428685191238 -88.68937195805859 0
v 69.35428685191238 -88.68937195805859 -0.1
v 82.13074966711167 -88.67826393994565 0
v 82.13074966711167 -88.67826393994565 -0.1
v 82.12178172588288 -86.11261748112344 0
v 82.12178172588288 -86.11261748112344 -0.1
v 78.99411031391465 -86.11261748112344 0
v 78.99411031391465 -86.11261748112344 -0.1
v 78.92929655685191 -75.05973182504631 0
v 78.92929655685191 -75.05973182504631 -0.1
v 75.96365953754047 -75.05973182504631 0
v 75.96365953754047 -75.05973182504631 -0.1
v 75.89884578047776 -86.11261748112344 0
v 75.89884578047776 -86.11261748112344 -0.1
v 69.82174078846376 -86.11261748112344 0
v 69.82174078846376 -86.11261748112344 -0.1
v 69.8703511062608 -75.075935264312 0
v 69.8703511062608 -75.075935264312 -0.1
v 80.77669244998542 -74.97871462871792 0
v 80.77669244998542 -74.97871462871792 -0.1
v 75.85579933622685 -75.02258015072319 0
v 75.85579933622685 -75.02258015072319 -0.1
v 76.02231919401508 -75.0210957696734 0
v 76.02231919401508 -75.0210957696734 -0.1
v 78.96699305196799 -74.99484653951775 0
v 78.96699305196799 -74.99484653951775 -0.1
v 75.70831882840439 -118.68137616367453 0
v 75.70831882840439 -118.68137616367453 -0.1
v 75.8150773873249 -118.68117548026098 0
v 75.8150773873249 -118.68117548026098 -0.1
v 78.70929092765583 -118.67573497358241 0
v 78.70929092765583 -118.67573497358241 -0.1
vt 80.7675206919105 -71.8956791060476 0
vt 66.77529038967003 -71.89486383866316 0
vt 66.4966727610388 -121.84874228525135 0
vt 80.49522138550866 -121.80808082445255 0
vt 80.5054122278141 -118.672358647063 0
vt 69.66286555692166 -118.69274033167393 0
vt 69.7137178600259 -107.85019366078147 0
vt 75.73059497401464 -107.85019366078147 0
vt 75.77900147496557 -118.65707238360481 0
vt 78.70591329351628 -118.66981093648663 0
vt 78.82616523272068 -107.82920052563222 0
vt 81.78150950130362 -107.80464059567606 0
vt 81.78150950130362 -104.95619826287738 0
vt 69.38740708940512 -105.02763606743865 0
vt 69.35428685191238 -88.68937195805859 0
vt 82.13074966711167 -88.67826393994565 0
vt 82.12178172588288 -86.11261748112344 0
vt 78.99411031391465 -86.11261748112344 0
vt 78.92929655685191 -75.05973182504631 0
vt 75.96365953754047 -75.05973182504631 0
vt 75.89884578047776 -86.11261748112344 0
vt 69.82174078846376 -86.11261748112344 0
vt 69.8703511062608 -75.075935264312 0
vt 80.77669244998542 -74.97871462871792 0
vt 75.85579933622685 -75.02258015072319 0
vt 76.02231919401508 -75.0210957696734 0
vt 78.96699305196799 -74.99484653951775 0
vt 75.70831882840439 -118.68137616367453 0
vt 75.8150773873249 -118.68117548026098 0
vt 78.70929092765583 -118.67573497358241 0
vn 0 0 1
vn 0 0 -1
usemtl floor_2
s off
f 3/2/1 5/3/1 29/15/1
f 30/15/2 6/3/2 4/2/2
f 3/2/1 29/15/1 43/22/1
f 44/22/2 30/15/2 4/2/2
f 3/2/1 43/22/1 45/23/1
f 46/23/2 44/22/2 4/2/2
f 3/2/1 45/23/1 49/25/1
f 50/25/2 46/23/2 4/2/2
f 49/25/1 1/1/1 3/2/1
f 4/2/2 2/1/2 50/25/2
f 51/26/1 1/1/1 49/25/1
f 50/25/2 2/1/2 52/26/2
f 53/27/1 1/1/1 51/26/1
f 52/26/2 2/1/2 54/27/2
f 53/27/1 47/24/1 1/1/1
f 2/1/2 48/24/2 54/27/2
f 5/3/1 7/4/1 55/28/1
f 56/28/2 8/4/2 6/3/2
f 55/28/1 7/4/1 57/29/1
f 58/29/2 8/4/2 56/28/2
f 55/28/1 11/6/1 5/3/1
f 6/3/2 12/6/2 56/28/2
f 5/3/1 11/6/1 13/7/1
f 14/7/2 12/6/2 6/3/2
f 5/3/1 13/7/1 27/14/1
f 28/14/2 14/7/2 6/3/2
f 5/3/1 27/14/1 29/15/1
f 30/15/2 28/14/2 6/3/2
f 29/15/1 31/16/1 41/21/1
f 42/21/2 32/16/2 30/15/2
f 29/15/1 41/21/1 43/22/1
f 44/22/2 42/21/2 30/15/2
f 39/20/1 41/21/1 37/19/1
f 38/19/2 42/21/2 40/20/2
f 37/19/1 41/21/1 35/18/1
f 36/18/2 42/21/2 38/19/2
f 33/17/1 35/18/1 31/16/1
f 32/16/2 36/18/2 34/17/2
f 31/16/1 35/18/1 41/21/1
f 42/21/2 36/18/2 32/16/2
f 23/12/1 25/13/1 21/11/1
f 22/11/2 26/13/2 24/12/2
f 59/30/1 7/4/1 9/5/1
f 10/5/2 8/4/2 60/30/2
f 57/29/1 7/4/1 59/30/1
f 60/30/2 8/4/2 58/29/2
f 17/9/1 19/10/1 15/8/1
f 16/8/2 20/10/2 18/9/2
f 13/7/1 15/8/1 27/14/1
f 28/14/2 16/8/2 14/7/2
f 27/14/1 15/8/1 25/13/1
f 26/13/2 16/8/2 28/14/2
f 25/13/1 15/8/1 21/11/1
f 22/11/2 16/8/2 26/13/2
f 21/11/1 15/8/1 19/10/1
f 20/10/2 16/8/2 22/11/2
